<svg xmlns="http://www.w3.org/2000/svg" xmlns:xlink="http://www.w3.org/1999/xlink" width="500" zoomAndPan="magnify" viewBox="0 0 375 374.999991" height="500" preserveAspectRatio="xMidYMid meet" version="1.0"><defs><g/><clipPath id="70f87abc3c"><path d="M 79.988281 79.992188 L 295 79.992188 L 295 295 L 79.988281 295 Z M 79.988281 79.992188 " clip-rule="nonzero"/></clipPath><clipPath id="9fe02d6ab2"><path d="M 101.777344 175.339844 L 121.277344 175.339844 L 121.277344 199.339844 L 101.777344 199.339844 Z M 101.777344 175.339844 " clip-rule="nonzero"/></clipPath><clipPath id="88bc1dd249"><path d="M 253.269531 175.339844 L 272.769531 175.339844 L 272.769531 199.339844 L 253.269531 199.339844 Z M 253.269531 175.339844 " clip-rule="nonzero"/></clipPath><clipPath id="ea15ed7ed3"><path d="M 171 151.488281 L 203 151.488281 L 203 174 L 171 174 Z M 171 151.488281 " clip-rule="nonzero"/></clipPath><clipPath id="4e24cbafb0"><path d="M 154.144531 185 L 185 185 L 185 215 L 154.144531 215 Z M 154.144531 185 " clip-rule="nonzero"/></clipPath><clipPath id="a6ec64b738"><path d="M 180 184 L 220.894531 184 L 220.894531 223.488281 L 180 223.488281 Z M 180 184 " clip-rule="nonzero"/></clipPath></defs><path fill="#c1ff72" d="M 287.074219 162.46875 C 275.898438 117.875 235.558594 84.84375 187.496094 84.84375 C 139.4375 84.84375 99.097656 117.875 87.917969 162.46875 C 85.914062 170.480469 84.847656 178.859375 84.847656 187.488281 C 84.847656 196.121094 85.914062 204.503906 87.917969 212.507812 C 99.097656 257.109375 139.4375 290.140625 187.496094 290.140625 C 235.558594 290.140625 275.898438 257.109375 287.074219 212.511719 C 289.078125 204.507812 290.144531 196.125 290.144531 187.492188 C 290.144531 178.863281 289.074219 170.480469 287.074219 162.46875 Z M 287.074219 162.46875 " fill-opacity="1" fill-rule="nonzero"/><path fill="#1c1920" d="M 281.175781 163.953125 C 270.664062 122 232.710938 90.925781 187.496094 90.925781 C 142.285156 90.925781 104.328125 122 93.820312 163.953125 C 91.9375 171.488281 90.929688 179.371094 90.929688 187.492188 C 90.929688 195.617188 91.933594 203.503906 93.820312 211.03125 C 104.328125 252.992188 142.285156 284.066406 187.496094 284.066406 C 232.710938 284.066406 270.664062 252.992188 281.175781 211.03125 C 283.058594 203.503906 284.066406 195.617188 284.066406 187.492188 C 284.066406 179.371094 283.058594 171.488281 281.175781 163.953125 Z M 187.496094 239.246094 C 163.0625 239.246094 142.589844 222.316406 137.15625 199.550781 C 136.226562 195.683594 135.738281 191.644531 135.738281 187.492188 C 135.738281 183.34375 136.226562 179.300781 137.15625 175.433594 C 142.589844 152.664062 163.0625 135.734375 187.496094 135.734375 C 211.933594 135.734375 232.40625 152.664062 237.835938 175.429688 C 238.769531 179.296875 239.257812 183.339844 239.257812 187.488281 C 239.257812 191.640625 238.769531 195.679688 237.835938 199.546875 C 232.40625 222.316406 211.933594 239.246094 187.496094 239.246094 Z M 187.496094 239.246094 " fill-opacity="1" fill-rule="nonzero"/><path fill="#c1ff72" d="M 135.738281 187.492188 C 135.738281 191.644531 136.226562 195.683594 137.15625 199.550781 L 93.820312 211.03125 C 91.9375 203.503906 90.929688 195.617188 90.929688 187.492188 C 90.929688 179.371094 91.933594 171.492188 93.820312 163.953125 L 137.164062 175.429688 C 136.230469 179.300781 135.738281 183.34375 135.738281 187.492188 Z M 281.175781 163.953125 L 237.832031 175.429688 C 238.765625 179.296875 239.25 183.339844 239.25 187.488281 C 239.25 191.640625 238.765625 195.679688 237.832031 199.546875 L 281.175781 211.023438 C 283.058594 203.496094 284.066406 195.609375 284.066406 187.484375 C 284.066406 179.363281 283.058594 171.488281 281.175781 163.953125 Z M 281.175781 163.953125 " fill-opacity="1" fill-rule="nonzero"/><g clip-path="url(#70f87abc3c)"><path fill="#322f37" d="M 291.761719 161.179688 C 286.027344 138.378906 272.644531 117.746094 254.09375 103.089844 C 234.960938 87.980469 211.933594 79.988281 187.496094 79.988281 C 163.0625 79.988281 140.035156 87.980469 120.90625 103.089844 C 102.351562 117.746094 88.96875 138.378906 83.230469 161.179688 C 81.082031 169.730469 79.988281 178.582031 79.988281 187.492188 C 79.988281 196.402344 81.082031 205.253906 83.230469 213.808594 C 88.96875 236.613281 102.347656 257.238281 120.902344 271.898438 C 140.035156 287.015625 163.058594 295 187.492188 295 C 211.925781 295 234.957031 287.011719 254.082031 271.898438 C 272.640625 257.238281 286.019531 236.605469 291.753906 213.808594 C 293.910156 205.257812 294.996094 196.402344 294.996094 187.492188 C 294.996094 178.582031 293.914062 169.734375 291.761719 161.179688 Z M 286.875 212.574219 C 281.402344 234.300781 268.652344 253.96875 250.964844 267.9375 C 232.734375 282.339844 210.789062 289.957031 187.496094 289.957031 C 164.207031 289.957031 142.261719 282.34375 124.027344 267.9375 C 106.34375 253.964844 93.585938 234.300781 88.121094 212.566406 C 86.070312 204.417969 85.03125 195.980469 85.03125 187.484375 C 85.03125 178.988281 86.070312 170.550781 88.121094 162.402344 C 93.585938 140.671875 106.34375 121.007812 124.027344 107.035156 C 142.261719 92.632812 164.207031 85.019531 187.496094 85.019531 C 210.789062 85.019531 232.734375 92.632812 250.964844 107.035156 C 268.652344 121.007812 281.40625 140.671875 286.875 162.402344 C 288.925781 170.550781 289.964844 178.988281 289.964844 187.484375 C 289.964844 195.988281 288.925781 204.421875 286.875 212.574219 Z M 283.621094 163.34375 L 283.003906 160.867188 L 282.964844 160.875 C 277.371094 140.816406 265.351562 122.730469 248.914062 109.730469 C 231.273438 95.78125 210.035156 88.40625 187.496094 88.40625 C 164.960938 88.40625 143.71875 95.78125 126.082031 109.730469 C 109.644531 122.730469 97.625 140.8125 92.03125 160.875 L 91.992188 160.867188 L 91.371094 163.34375 C 89.40625 171.207031 88.410156 179.332031 88.410156 187.492188 C 88.410156 188.511719 88.425781 189.53125 88.457031 190.550781 C 88.527344 192.75 88.667969 194.941406 88.882812 197.125 C 89.355469 202.027344 90.1875 206.882812 91.375 211.640625 L 91.996094 214.117188 L 92.035156 214.109375 C 97.628906 234.167969 109.648438 252.257812 126.085938 265.253906 C 143.726562 279.207031 164.964844 286.582031 187.5 286.582031 C 210.039062 286.582031 231.277344 279.207031 248.917969 265.253906 C 265.355469 252.257812 277.375 234.167969 282.96875 214.109375 L 283.007812 214.117188 L 283.625 211.640625 C 285.59375 203.777344 286.589844 195.652344 286.589844 187.488281 C 286.589844 186.46875 286.574219 185.449219 286.542969 184.429688 C 286.320312 177.304688 285.34375 170.222656 283.621094 163.34375 Z M 281.503906 190.246094 C 281.492188 190.546875 281.476562 190.847656 281.464844 191.148438 C 281.4375 191.761719 281.417969 192.378906 281.378906 192.992188 C 281.355469 193.355469 281.332031 193.710938 281.304688 194.074219 C 281.265625 194.632812 281.226562 195.1875 281.175781 195.742188 C 281.140625 196.121094 281.105469 196.5 281.066406 196.875 C 281.015625 197.414062 280.957031 197.953125 280.894531 198.484375 C 280.851562 198.867188 280.804688 199.25 280.753906 199.632812 C 280.683594 200.167969 280.613281 200.699219 280.535156 201.234375 C 280.480469 201.609375 280.421875 201.984375 280.367188 202.359375 C 280.28125 202.910156 280.1875 203.457031 280.085938 204.003906 C 280.023438 204.355469 279.960938 204.710938 279.898438 205.0625 C 279.78125 205.667969 279.660156 206.269531 279.53125 206.871094 C 279.472656 207.164062 279.417969 207.457031 279.351562 207.742188 C 279.339844 207.804688 279.320312 207.859375 279.308594 207.917969 L 240.800781 197.71875 C 240.824219 197.582031 240.847656 197.441406 240.871094 197.300781 C 240.902344 197.132812 240.933594 196.960938 240.964844 196.792969 C 241.023438 196.460938 241.074219 196.121094 241.125 195.78125 C 241.148438 195.632812 241.175781 195.492188 241.195312 195.34375 C 241.265625 194.863281 241.328125 194.382812 241.390625 193.902344 C 241.394531 193.847656 241.398438 193.800781 241.40625 193.75 C 241.457031 193.316406 241.5 192.882812 241.539062 192.441406 C 241.550781 192.285156 241.566406 192.125 241.578125 191.964844 C 241.605469 191.628906 241.628906 191.292969 241.652344 190.960938 C 241.664062 190.789062 241.671875 190.609375 241.679688 190.4375 C 241.699219 190.097656 241.714844 189.757812 241.722656 189.414062 C 241.730469 189.261719 241.738281 189.105469 241.742188 188.949219 C 241.753906 188.460938 241.761719 187.96875 241.761719 187.476562 C 241.761719 186.980469 241.753906 186.496094 241.742188 186 C 241.738281 185.847656 241.730469 185.691406 241.722656 185.535156 C 241.710938 185.195312 241.699219 184.855469 241.679688 184.515625 C 241.671875 184.339844 241.660156 184.167969 241.652344 183.992188 C 241.628906 183.65625 241.605469 183.328125 241.578125 182.996094 C 241.566406 182.835938 241.550781 182.671875 241.539062 182.511719 C 241.5 182.082031 241.457031 181.65625 241.40625 181.226562 C 241.398438 181.171875 241.394531 181.113281 241.390625 181.054688 C 241.332031 180.574219 241.269531 180.097656 241.199219 179.613281 C 241.179688 179.464844 241.152344 179.320312 241.132812 179.167969 C 241.078125 178.832031 241.023438 178.496094 240.96875 178.164062 C 240.9375 177.992188 240.90625 177.820312 240.878906 177.648438 C 240.851562 177.511719 240.828125 177.371094 240.804688 177.234375 L 279.3125 167.03125 C 279.328125 167.09375 279.34375 167.152344 279.355469 167.214844 C 279.417969 167.496094 279.472656 167.78125 279.53125 168.066406 C 279.660156 168.675781 279.785156 169.289062 279.902344 169.902344 C 279.96875 170.246094 280.027344 170.589844 280.085938 170.933594 C 280.1875 171.492188 280.285156 172.050781 280.371094 172.609375 C 280.425781 172.976562 280.484375 173.339844 280.535156 173.710938 C 280.617188 174.253906 280.691406 174.796875 280.761719 175.34375 C 280.808594 175.71875 280.855469 176.09375 280.898438 176.46875 C 280.964844 177.011719 281.019531 177.558594 281.078125 178.105469 C 281.117188 178.476562 281.148438 178.851562 281.183594 179.21875 C 281.230469 179.78125 281.273438 180.347656 281.3125 180.910156 C 281.339844 181.261719 281.363281 181.617188 281.386719 181.972656 C 281.421875 182.585938 281.445312 183.207031 281.472656 183.824219 C 281.484375 184.125 281.503906 184.425781 281.511719 184.722656 C 281.535156 185.640625 281.554688 186.558594 281.554688 187.476562 C 281.546875 188.410156 281.527344 189.328125 281.503906 190.246094 Z M 129.207031 113.683594 C 145.949219 100.441406 166.101562 93.445312 187.496094 93.445312 C 208.890625 93.445312 229.046875 100.441406 245.789062 113.683594 C 261.375 126.011719 272.777344 143.152344 278.09375 162.164062 L 239.621094 172.355469 C 236.519531 161.683594 230.109375 152.070312 221.367188 145.078125 C 211.660156 137.316406 199.953125 133.214844 187.496094 133.214844 C 175.042969 133.214844 163.335938 137.316406 153.628906 145.078125 C 144.886719 152.070312 138.472656 161.683594 135.375 172.355469 L 96.902344 162.167969 C 102.21875 143.152344 113.617188 126.011719 129.207031 113.683594 Z M 236.714844 188.949219 C 236.699219 189.542969 236.667969 190.132812 236.628906 190.722656 C 236.507812 192.550781 236.292969 194.363281 235.976562 196.152344 C 235.957031 196.261719 235.933594 196.363281 235.914062 196.472656 C 235.847656 196.835938 235.78125 197.199219 235.703125 197.566406 C 235.605469 198.035156 235.5 198.496094 235.390625 198.960938 L 235.386719 198.984375 C 232.863281 209.558594 226.769531 219.144531 218.222656 225.972656 C 209.421875 233.011719 198.796875 236.730469 187.5 236.730469 C 176.203125 236.730469 165.582031 233.011719 156.78125 225.972656 C 148.234375 219.140625 142.136719 209.550781 139.613281 198.960938 C 138.71875 195.25 138.265625 191.390625 138.265625 187.492188 C 138.265625 187.007812 138.277344 186.519531 138.289062 186.035156 C 138.386719 182.632812 138.835938 179.273438 139.617188 176.019531 C 142.140625 165.441406 148.234375 155.851562 156.785156 149.019531 C 165.585938 141.980469 176.210938 138.257812 187.507812 138.257812 C 198.804688 138.257812 209.425781 141.980469 218.226562 149.019531 C 226.773438 155.851562 232.871094 165.441406 235.394531 176.027344 C 236.289062 179.738281 236.742188 183.597656 236.742188 187.496094 C 236.734375 187.980469 236.726562 188.464844 236.714844 188.949219 Z M 134.1875 197.730469 L 95.675781 207.933594 C 95.664062 207.875 95.652344 207.820312 95.636719 207.761719 C 95.574219 207.464844 95.519531 207.167969 95.453125 206.875 C 95.328125 206.277344 95.203125 205.675781 95.09375 205.074219 C 95.027344 204.722656 94.96875 204.375 94.90625 204.027344 C 94.808594 203.472656 94.714844 202.917969 94.625 202.363281 C 94.5625 201.992188 94.511719 201.625 94.457031 201.257812 C 94.378906 200.714844 94.300781 200.175781 94.230469 199.632812 C 94.183594 199.257812 94.136719 198.878906 94.09375 198.507812 C 94.03125 197.964844 93.972656 197.417969 93.917969 196.871094 C 93.878906 196.5 93.84375 196.128906 93.8125 195.753906 C 93.761719 195.191406 93.71875 194.628906 93.683594 194.0625 C 93.65625 193.710938 93.628906 193.359375 93.609375 193 C 93.574219 192.382812 93.546875 191.769531 93.523438 191.148438 C 93.511719 190.847656 93.492188 190.550781 93.484375 190.25 C 93.457031 189.332031 93.441406 188.414062 93.441406 187.492188 C 93.441406 186.574219 93.457031 185.65625 93.484375 184.742188 C 93.492188 184.441406 93.511719 184.140625 93.523438 183.839844 C 93.546875 183.222656 93.570312 182.605469 93.609375 181.988281 C 93.628906 181.632812 93.65625 181.273438 93.683594 180.917969 C 93.71875 180.359375 93.757812 179.800781 93.8125 179.242188 C 93.84375 178.867188 93.878906 178.488281 93.917969 178.113281 C 93.96875 177.574219 94.03125 177.03125 94.089844 176.492188 C 94.132812 176.113281 94.179688 175.734375 94.226562 175.351562 C 94.296875 174.816406 94.375 174.277344 94.453125 173.742188 C 94.507812 173.367188 94.558594 172.996094 94.621094 172.621094 C 94.707031 172.066406 94.804688 171.515625 94.898438 170.96875 C 94.960938 170.613281 95.019531 170.265625 95.089844 169.917969 C 95.203125 169.3125 95.324219 168.710938 95.453125 168.105469 C 95.515625 167.816406 95.570312 167.523438 95.632812 167.230469 C 95.648438 167.171875 95.664062 167.113281 95.675781 167.054688 L 134.183594 177.253906 C 134.15625 177.394531 134.128906 177.539062 134.105469 177.679688 C 134.074219 177.84375 134.042969 178.011719 134.015625 178.179688 C 133.953125 178.519531 133.898438 178.863281 133.847656 179.207031 C 133.824219 179.347656 133.800781 179.492188 133.78125 179.632812 C 133.714844 180.113281 133.648438 180.59375 133.589844 181.082031 C 133.585938 181.132812 133.582031 181.179688 133.570312 181.230469 C 133.519531 181.667969 133.476562 182.101562 133.4375 182.539062 C 133.425781 182.699219 133.414062 182.851562 133.398438 183.011719 C 133.375 183.347656 133.347656 183.683594 133.328125 184.019531 C 133.3125 184.191406 133.304688 184.363281 133.296875 184.539062 C 133.277344 184.878906 133.261719 185.21875 133.253906 185.5625 C 133.25 185.71875 133.242188 185.871094 133.234375 186.027344 C 133.222656 186.515625 133.214844 187.007812 133.214844 187.496094 C 133.214844 187.988281 133.222656 188.476562 133.234375 188.96875 C 133.242188 189.125 133.25 189.277344 133.253906 189.433594 C 133.265625 189.773438 133.277344 190.113281 133.296875 190.453125 C 133.304688 190.625 133.316406 190.800781 133.328125 190.972656 C 133.347656 191.308594 133.375 191.644531 133.398438 191.972656 C 133.414062 192.132812 133.425781 192.292969 133.4375 192.457031 C 133.476562 192.886719 133.519531 193.3125 133.570312 193.738281 C 133.582031 193.796875 133.585938 193.851562 133.589844 193.914062 C 133.644531 194.394531 133.710938 194.871094 133.777344 195.355469 C 133.800781 195.503906 133.824219 195.652344 133.847656 195.800781 C 133.898438 196.136719 133.949219 196.46875 134.011719 196.804688 C 134.039062 196.976562 134.070312 197.148438 134.105469 197.320312 C 134.140625 197.453125 134.160156 197.59375 134.1875 197.730469 Z M 245.789062 261.308594 C 229.046875 274.546875 208.890625 281.546875 187.496094 281.546875 C 166.101562 281.546875 145.949219 274.546875 129.207031 261.308594 C 113.617188 248.980469 102.21875 231.832031 96.902344 212.820312 L 135.375 202.628906 C 138.472656 213.304688 144.886719 222.914062 153.628906 229.90625 C 163.335938 237.667969 175.042969 241.773438 187.496094 241.773438 C 199.953125 241.773438 211.660156 237.667969 221.367188 229.90625 C 230.109375 222.914062 236.519531 213.304688 239.621094 202.632812 L 278.09375 212.820312 C 272.777344 231.832031 261.375 248.980469 245.789062 261.308594 Z M 245.789062 261.308594 " fill-opacity="1" fill-rule="nonzero"/></g><g fill="#ffffff" fill-opacity="1"><g transform="translate(130.856595, 156.319569)"><g><path d="M 11.296875 -11.828125 L 7.453125 -6.96875 L 6.234375 -7.921875 L 0.484375 -0.609375 L -15.34375 -13.09375 L -5.75 -25.265625 L -2.09375 -22.375 L -7.859375 -15.0625 L 0.65625 -8.34375 L 2.578125 -10.796875 L -2.296875 -14.640625 L 0.328125 -20.46875 Z M 11.296875 -11.828125 "/></g></g></g><g fill="#ffffff" fill-opacity="1"><g transform="translate(141.324283, 143.014263)"><g><path d="M 8.046875 -6.0625 L 3.390625 -12.25 L 0.90625 -10.375 L 5.5625 -4.1875 L 0.625 -0.46875 L -11.5 -16.578125 L -6.5625 -20.296875 L -1.890625 -14.09375 L 0.59375 -15.96875 L -4.078125 -22.171875 L 0.890625 -25.90625 L 13.015625 -9.796875 Z M 8.046875 -6.0625 "/></g></g></g><g fill="#ffffff" fill-opacity="1"><g transform="translate(154.840839, 132.820819)"><g><path d="M 7.46875 -24.8125 L 15.078125 -6.140625 L 0.71875 -0.296875 L -6.890625 -18.96875 Z M 3.484375 -18.15625 L 0.609375 -16.984375 L 4.703125 -6.9375 L 7.578125 -8.109375 Z M 3.484375 -18.15625 "/></g></g></g><g fill="#ffffff" fill-opacity="1"><g transform="translate(170.511194, 126.414274)"><g><path d="M 14.140625 -17.46875 L 8.203125 -15.140625 L 8 -16.671875 L 4.90625 -16.265625 L 5.3125 -13.1875 L 14.546875 -14.390625 L 16.140625 -2.09375 L 0.78125 -0.09375 L 0.1875 -4.71875 L 6.109375 -7.046875 L 6.3125 -5.515625 L 9.40625 -5.921875 L 9 -8.984375 L -0.21875 -7.78125 L -1.8125 -20.078125 L 13.546875 -22.078125 Z M 14.140625 -17.46875 "/></g></g></g><g fill="#ffffff" fill-opacity="1"><g transform="translate(187.297606, 124.218876)"><g><path d="M 18.734375 -17.890625 L 18.140625 -13.28125 L 13.53125 -13.875 L 11.53125 1.5 L 5.171875 2.234375 L 7.375 -14.671875 L 2.78125 -15.28125 L 3.375 -19.890625 Z M 18.734375 -17.890625 "/></g></g></g><g fill="#ffffff" fill-opacity="1"><g transform="translate(204.088477, 126.380012)"><g><path d="M 20.921875 -8.21875 L 14.59375 -9.125 L 15.171875 -10.5625 L 12.296875 -11.734375 L 11.140625 -8.859375 L 19.765625 -5.34375 L 15.078125 6.140625 L 0.71875 0.296875 L 2.46875 -4.015625 L 8.796875 -3.125 L 8.203125 -1.6875 L 11.078125 -0.515625 L 12.25 -3.375 L 3.640625 -6.875 L 8.328125 -18.375 L 22.6875 -12.53125 Z M 20.921875 -8.21875 "/></g></g></g><g fill="#ffffff" fill-opacity="1"><g transform="translate(219.771862, 132.754564)"><g><path d="M 22.328125 -2.59375 L 14.875 -8.203125 L 8.359375 0.46875 L 15.8125 6.078125 L 13.015625 9.796875 L 0.625 0.46875 L 12.75 -15.640625 L 25.140625 -6.3125 Z M 17.671875 3.609375 L 11.46875 -1.0625 L 14.265625 -4.78125 L 20.46875 -0.109375 Z M 17.671875 3.609375 "/></g></g></g><g fill="#ffffff" fill-opacity="1"><g transform="translate(233.309194, 142.92041)"><g><path d="M 21.03125 4.140625 L 15.984375 0.234375 L 18.40625 -1.671875 L 16.484375 -4.125 L 7.96875 2.59375 L 9.890625 5.046875 L 11.109375 4.078125 L 16.171875 7.984375 L 10.078125 12.78125 L 0.484375 0.609375 L 16.3125 -11.875 L 25.90625 0.296875 Z M 21.03125 4.140625 "/></g></g></g><g clip-path="url(#9fe02d6ab2)"><path fill="#322f37" d="M 111.664062 199.65625 C 111.617188 199.65625 111.566406 199.648438 111.523438 199.632812 C 105.601562 197.515625 101.777344 191.84375 101.777344 185.179688 L 101.777344 179.59375 C 101.777344 179.359375 101.96875 179.160156 102.207031 179.160156 C 105.015625 179.160156 109.457031 177.671875 111.347656 175.527344 C 111.507812 175.339844 111.828125 175.339844 111.988281 175.527344 C 113.878906 177.667969 118.320312 179.160156 121.128906 179.160156 C 121.363281 179.160156 121.558594 179.351562 121.558594 179.59375 L 121.558594 185.179688 C 121.558594 191.84375 117.734375 197.515625 111.8125 199.632812 C 111.761719 199.648438 111.714844 199.65625 111.664062 199.65625 Z M 102.632812 180.007812 L 102.632812 185.179688 C 102.632812 191.425781 106.175781 196.738281 111.664062 198.773438 C 117.160156 196.738281 120.699219 191.425781 120.699219 185.179688 L 120.699219 180.007812 C 117.8125 179.878906 113.761719 178.488281 111.664062 176.429688 C 109.574219 178.488281 105.523438 179.878906 102.632812 180.007812 Z M 102.632812 180.007812 " fill-opacity="1" fill-rule="nonzero"/></g><path fill="#322f37" d="M 119.460938 180.851562 C 116.761719 180.476562 113.777344 179.300781 111.859375 177.859375 L 111.664062 177.710938 L 111.46875 177.859375 C 109.554688 179.300781 106.570312 180.476562 103.867188 180.851562 L 103.589844 180.890625 L 103.589844 185.175781 C 103.589844 190.773438 106.710938 195.683594 111.539062 197.6875 L 111.660156 197.738281 L 111.78125 197.6875 C 116.609375 195.683594 119.730469 190.773438 119.730469 185.175781 L 119.730469 180.890625 Z M 119.460938 180.851562 " fill-opacity="1" fill-rule="nonzero"/><g clip-path="url(#88bc1dd249)"><path fill="#322f37" d="M 263.160156 199.65625 C 263.109375 199.65625 263.0625 199.648438 263.015625 199.632812 C 257.09375 197.515625 253.269531 191.84375 253.269531 185.179688 L 253.269531 179.59375 C 253.269531 179.359375 253.460938 179.160156 253.699219 179.160156 C 256.507812 179.160156 260.949219 177.671875 262.839844 175.527344 C 263.003906 175.339844 263.320312 175.339844 263.480469 175.527344 C 265.371094 177.667969 269.8125 179.160156 272.621094 179.160156 C 272.855469 179.160156 273.050781 179.351562 273.050781 179.59375 L 273.050781 185.179688 C 273.050781 191.84375 269.226562 197.515625 263.304688 199.632812 C 263.257812 199.648438 263.207031 199.65625 263.160156 199.65625 Z M 254.125 180.007812 L 254.125 185.179688 C 254.125 191.425781 257.667969 196.738281 263.160156 198.773438 C 268.65625 196.738281 272.191406 191.425781 272.191406 185.179688 L 272.191406 180.007812 C 269.304688 179.878906 265.253906 178.488281 263.160156 176.429688 C 261.066406 178.488281 257.015625 179.878906 254.125 180.007812 Z M 254.125 180.007812 " fill-opacity="1" fill-rule="nonzero"/></g><path fill="#322f37" d="M 270.957031 180.851562 C 268.253906 180.476562 265.269531 179.300781 263.355469 177.859375 L 263.160156 177.710938 L 262.964844 177.859375 C 261.046875 179.300781 258.0625 180.476562 255.359375 180.851562 L 255.082031 180.890625 L 255.082031 185.175781 C 255.082031 190.773438 258.203125 195.683594 263.03125 197.6875 L 263.152344 197.738281 L 263.277344 197.6875 C 268.101562 195.683594 271.222656 190.773438 271.222656 185.175781 L 271.222656 180.890625 Z M 270.957031 180.851562 " fill-opacity="1" fill-rule="nonzero"/><g clip-path="url(#ea15ed7ed3)"><path fill="#322f37" d="M 172.292969 170.710938 C 172.027344 170.582031 171.773438 170.445312 171.53125 170.3125 C 172.246094 166.917969 173.128906 162.714844 173.875 159.035156 C 173.957031 158.628906 174.042969 158.242188 174.140625 157.875 C 174.753906 155.457031 175.605469 153.824219 176.53125 152.863281 C 177.671875 151.683594 178.917969 151.515625 179.964844 152.160156 C 180.402344 152.429688 180.808594 152.839844 181.152344 153.378906 C 181.394531 153.757812 181.695312 154.105469 182.03125 154.421875 C 182.640625 155 183.328125 155.449219 184.066406 155.765625 C 185.894531 156.558594 187.996094 156.542969 189.816406 155.722656 C 190.515625 155.410156 191.171875 154.972656 191.753906 154.421875 C 192.089844 154.105469 192.386719 153.757812 192.632812 153.378906 C 193.019531 152.777344 193.476562 152.335938 193.976562 152.070312 C 194.914062 151.574219 195.996094 151.714844 197.011719 152.632812 C 197.988281 153.515625 198.902344 155.121094 199.566406 157.574219 C 199.691406 158.03125 199.804688 158.519531 199.910156 159.035156 C 200.679688 162.839844 201.597656 167.210938 202.328125 170.65625 C 202.292969 170.675781 202.257812 170.691406 202.222656 170.710938 C 198.261719 172.664062 192.949219 173.742188 187.257812 173.742188 C 181.574219 173.742188 176.257812 172.664062 172.292969 170.710938 Z M 172.292969 170.710938 " fill-opacity="1" fill-rule="nonzero"/></g><path fill="#322f37" d="M 213.414062 180.140625 C 213.414062 184.296875 201.539062 187.660156 186.890625 187.660156 C 172.246094 187.660156 160.371094 184.296875 160.371094 180.140625 C 160.371094 177.765625 164.257812 175.644531 170.328125 174.265625 C 170.386719 174.296875 170.441406 174.324219 170.496094 174.351562 C 175.007812 176.578125 180.960938 177.804688 187.257812 177.804688 C 193.523438 177.804688 199.453125 176.589844 203.953125 174.382812 C 209.738281 175.761719 213.414062 177.828125 213.414062 180.140625 Z M 213.414062 180.140625 " fill-opacity="1" fill-rule="nonzero"/><g clip-path="url(#4e24cbafb0)"><path fill="#322f37" d="M 184.21875 210.269531 C 183.925781 210.707031 183.640625 211.144531 183.363281 211.589844 C 182.75 212.570312 182.207031 213.515625 181.726562 214.417969 L 161.90625 204.398438 L 168.699219 201.570312 L 154.144531 193.347656 L 161.746094 185.09375 C 163.222656 185.992188 165.175781 186.789062 167.566406 187.46875 C 167.589844 187.472656 167.609375 187.480469 167.632812 187.484375 C 169.390625 196.878906 177.613281 205.054688 184.21875 210.269531 Z M 184.21875 210.269531 " fill-opacity="1" fill-rule="nonzero"/></g><g clip-path="url(#a6ec64b738)"><path fill="#322f37" d="M 206.21875 202.5 L 213.898438 204.074219 C 213.898438 204.074219 192.957031 206.742188 180.34375 223.480469 C 180.34375 223.480469 184.335938 204.996094 205.273438 194.933594 C 205.902344 194.632812 206.296875 193.992188 206.296875 193.296875 L 206.296875 187.445312 C 208.90625 186.699219 210.992188 185.8125 212.492188 184.804688 C 212.769531 184.617188 213.027344 184.429688 213.257812 184.238281 L 220.851562 193.347656 Z M 206.21875 202.5 " fill-opacity="1" fill-rule="nonzero"/></g><path fill="#322f37" d="M 185.074219 191.042969 C 184.835938 193.207031 181.503906 194.613281 177.632812 194.183594 C 173.761719 193.757812 170.816406 191.65625 171.054688 189.492188 C 171.097656 189.105469 171.238281 188.742188 171.472656 188.410156 C 175.4375 189.183594 180.023438 189.644531 184.847656 189.75 C 185.042969 190.167969 185.125 190.605469 185.074219 191.042969 Z M 185.074219 191.042969 " fill-opacity="1" fill-rule="nonzero"/><path fill="#322f37" d="M 197.363281 194.183594 C 193.492188 194.613281 190.15625 193.207031 189.917969 191.042969 C 189.871094 190.589844 189.957031 190.140625 190.167969 189.710938 C 194.96875 189.546875 199.496094 189.027344 203.367188 188.191406 C 203.6875 188.582031 203.890625 189.019531 203.941406 189.492188 C 204.179688 191.65625 201.234375 193.757812 197.363281 194.183594 Z M 197.363281 194.183594 " fill-opacity="1" fill-rule="nonzero"/><path stroke-linecap="butt" transform="matrix(0.584899, 0.469461, -0.469461, 0.584899, 131.259766, 229.247987)" fill="none" stroke-linejoin="miter" d="M 13.580921 14.594767 L 13.583026 23.001316 L 0.645799 23.000118 L 0.645651 6.18376 L 13.582878 6.184957 L 13.582093 13.298195 L 8.40928 14.59168 Z M 8.406977 12.650083 L 8.40852 10.064262 L 5.818638 10.065979 L 5.817094 12.651799 Z M 8.40426 16.532475 L 5.8217 16.534993 L 5.820156 19.120814 L 8.410039 19.119097 Z M 8.40426 16.532475 " stroke="#c1ff72" stroke-width="1.490535" stroke-opacity="1" stroke-miterlimit="4"/><path stroke-linecap="butt" transform="matrix(0.652637, 0.369547, -0.369547, 0.652637, 141.789605, 237.424818)" fill="none" stroke-linejoin="miter" d="M 13.580908 6.185477 L 13.5789 22.999412 L 0.64623 23.002295 L 0.645671 6.183827 L 5.81898 6.187326 L 5.821862 19.119997 L 8.408517 19.121747 L 8.410166 6.18651 Z M 13.580908 6.185477 " stroke="#c1ff72" stroke-width="1.490535" stroke-opacity="1" stroke-miterlimit="4"/><path stroke-linecap="butt" transform="matrix(0.703469, 0.26006, -0.26006, 0.703469, 153.494819, 243.806468)" fill="none" stroke-linejoin="miter" d="M 13.581244 24.295712 L 8.405175 24.293481 L 8.409396 22.99811 L 0.648002 23.002092 L 0.644259 6.183931 L 13.581722 6.182179 L 13.578828 10.064682 L 5.822319 10.066859 L 5.820274 19.11874 L 8.407405 19.117412 L 8.406556 13.948035 L 13.580156 12.651814 Z M 13.581244 24.295712 " stroke="#c1ff72" stroke-width="1.490535" stroke-opacity="1" stroke-miterlimit="4"/><path stroke-linecap="butt" transform="matrix(0.743742, 0.0966819, -0.0966819, 0.743742, 171.214755, 249.407914)" fill="none" stroke-linejoin="miter" d="M 8.405212 23.002027 L 8.40959 16.530802 L 5.820336 16.531251 L 5.821123 23.001804 L 0.647779 23.002031 L 0.646539 6.18479 L 5.819883 6.184564 L 5.819998 12.649952 L 8.409252 12.649503 L 8.409137 6.184115 L 13.582481 6.183888 L 13.583721 23.001129 Z M 8.405212 23.002027 " stroke="#c1ff72" stroke-width="1.490535" stroke-opacity="1" stroke-miterlimit="4"/><path stroke-linecap="butt" transform="matrix(0.74962, -0.0238865, 0.0238865, 0.74962, 184.461276, 250.913772)" fill="none" stroke-linejoin="miter" d="M 13.580255 6.186039 L 13.581151 23.00189 L 0.64752 23.001429 L 0.646625 6.185578 L 5.821184 6.183713 L 5.820723 19.117343 L 8.405234 19.121534 L 8.405861 6.182698 Z M 13.580255 6.186039 " stroke="#c1ff72" stroke-width="1.490535" stroke-opacity="1" stroke-miterlimit="4"/><path stroke-linecap="butt" transform="matrix(0.736078, -0.143836, 0.143836, 0.736078, 197.77779, 250.275041)" fill="none" stroke-linejoin="miter" d="M 0.646924 23.002029 L 0.648205 6.184899 L 13.580766 6.185979 L 13.580485 22.997997 L 8.407475 24.295622 L 8.406918 10.067871 L 5.82265 10.067032 L 5.821571 22.999594 Z M 0.646924 23.002029 " stroke="#c1ff72" stroke-width="1.490535" stroke-opacity="1" stroke-miterlimit="4"/><path stroke-linecap="butt" transform="matrix(0.703469, -0.26006, 0.26006, 0.703469, 210.819365, 247.508245)" fill="none" stroke-linejoin="miter" d="M 13.579156 6.185448 L 13.58205 10.067952 L 9.701352 10.065961 L 9.701406 22.998539 L 4.524674 24.294335 L 4.527089 10.063306 L 0.644586 10.0662 L 0.646577 6.185503 Z M 13.579156 6.185448 " stroke="#c1ff72" stroke-width="1.490535" stroke-opacity="1" stroke-miterlimit="4"/><path stroke-linecap="butt" transform="matrix(0.652637, -0.369547, 0.369547, 0.652637, 223.248153, 242.685087)" fill="none" stroke-linejoin="miter" d="M 13.58253 10.064806 L 5.820601 10.062956 L 5.821892 19.119495 L 13.579289 19.118779 L 13.584179 23.000043 L 0.64441 22.999126 L 0.646934 6.187757 L 13.582171 6.186108 Z M 13.582071 16.534691 L 7.112187 16.534232 L 7.114395 12.651002 L 13.584279 12.65146 Z M 13.582071 16.534691 " stroke="#c1ff72" stroke-width="1.490535" stroke-opacity="1" stroke-miterlimit="4"/><path stroke-linecap="butt" transform="matrix(0.584899, -0.469461, 0.469461, 0.584899, 234.742211, 235.930473)" fill="none" stroke-linejoin="miter" d="M 13.581758 23.001313 L 8.410488 24.293649 L 8.409117 16.532126 L 5.819235 16.530409 L 5.820234 23.002683 L 0.647791 22.998449 L 0.644679 6.186152 L 13.581906 6.184954 L 13.58269 13.298192 L 8.40816 14.594591 L 13.579801 14.591504 Z M 8.406401 12.649734 L 8.408919 10.067173 L 5.819037 10.065457 L 5.82058 12.651277 Z M 8.406401 12.649734 " stroke="#c1ff72" stroke-width="1.490535" stroke-opacity="1" stroke-miterlimit="4"/></svg>