<svg xmlns="http://www.w3.org/2000/svg" xmlns:xlink="http://www.w3.org/1999/xlink" width="500" zoomAndPan="magnify" viewBox="0 0 375 374.999991" height="500" preserveAspectRatio="xMidYMid meet" version="1.0"><defs><g/><clipPath id="bfe016ef58"><path d="M 0 93.753906 L 187.304688 93.753906 L 187.304688 281.054688 L 0 281.054688 Z M 0 93.753906 " clip-rule="nonzero"/></clipPath><clipPath id="889459efcc"><path d="M 19 176.898438 L 36.273438 176.898438 L 36.273438 197.808594 L 19 197.808594 Z M 19 176.898438 " clip-rule="nonzero"/></clipPath><clipPath id="9683aa67c7"><path d="M 151.101562 176.898438 L 168.378906 176.898438 L 168.378906 197.808594 L 151.101562 197.808594 Z M 151.101562 176.898438 " clip-rule="nonzero"/></clipPath><clipPath id="c90aaeccef"><path d="M 79 156.097656 L 107 156.097656 L 107 176 L 79 176 Z M 79 156.097656 " clip-rule="nonzero"/></clipPath><clipPath id="9858d9d38b"><path d="M 64.664062 185 L 91 185 L 91 211 L 64.664062 211 Z M 64.664062 185 " clip-rule="nonzero"/></clipPath><clipPath id="22dcd1706b"><path d="M 87 184 L 122.855469 184 L 122.855469 218.835938 L 87 218.835938 Z M 87 184 " clip-rule="nonzero"/></clipPath></defs><path fill="#c1ff72" d="M 180.574219 165.671875 C 170.828125 126.785156 135.652344 97.984375 93.746094 97.984375 C 51.835938 97.984375 16.660156 126.785156 6.914062 165.671875 C 5.167969 172.65625 4.238281 179.960938 4.238281 187.488281 C 4.238281 195.011719 5.167969 202.324219 6.914062 209.304688 C 16.660156 248.195312 51.835938 277 93.746094 277 C 135.652344 277 170.828125 248.195312 180.574219 209.308594 C 182.320312 202.328125 183.25 195.015625 183.25 187.492188 C 183.25 179.964844 182.316406 172.65625 180.574219 165.671875 Z M 180.574219 165.671875 " fill-opacity="1" fill-rule="nonzero"/><path fill="#1c1920" d="M 175.429688 166.964844 C 166.265625 130.382812 133.167969 103.285156 93.746094 103.285156 C 54.320312 103.285156 21.222656 130.382812 12.058594 166.964844 C 10.417969 173.535156 9.539062 180.40625 9.539062 187.492188 C 9.539062 194.574219 10.414062 201.453125 12.058594 208.015625 C 21.222656 244.605469 54.320312 271.699219 93.746094 271.699219 C 133.167969 271.699219 166.265625 244.605469 175.429688 208.015625 C 177.070312 201.453125 177.949219 194.574219 177.949219 187.492188 C 177.949219 180.40625 177.070312 173.535156 175.429688 166.964844 Z M 93.746094 232.621094 C 72.4375 232.621094 54.585938 217.855469 49.847656 198.003906 C 49.035156 194.632812 48.613281 191.109375 48.613281 187.492188 C 48.613281 183.871094 49.035156 180.347656 49.847656 176.976562 C 54.585938 157.121094 72.4375 142.359375 93.746094 142.359375 C 115.050781 142.359375 132.902344 157.121094 137.640625 176.972656 C 138.453125 180.34375 138.875 183.867188 138.875 187.488281 C 138.875 191.105469 138.453125 194.628906 137.640625 198 C 132.902344 217.855469 115.050781 232.621094 93.746094 232.621094 Z M 93.746094 232.621094 " fill-opacity="1" fill-rule="nonzero"/><path fill="#c1ff72" d="M 48.613281 187.492188 C 48.613281 191.109375 49.035156 194.632812 49.847656 198.003906 L 12.058594 208.015625 C 10.417969 201.453125 9.539062 194.574219 9.539062 187.492188 C 9.539062 180.40625 10.414062 173.539062 12.058594 166.964844 L 49.851562 176.972656 C 49.039062 180.347656 48.613281 183.871094 48.613281 187.492188 Z M 175.429688 166.964844 L 137.636719 176.972656 C 138.449219 180.34375 138.875 183.867188 138.875 187.488281 C 138.875 191.105469 138.449219 194.628906 137.636719 198 L 175.429688 208.007812 C 177.070312 201.445312 177.949219 194.566406 177.949219 187.484375 C 177.949219 180.398438 177.070312 173.535156 175.429688 166.964844 Z M 175.429688 166.964844 " fill-opacity="1" fill-rule="nonzero"/><g clip-path="url(#bfe016ef58)"><path fill="#322f37" d="M 184.660156 164.546875 C 179.660156 144.664062 167.988281 126.671875 151.8125 113.894531 C 135.128906 100.71875 115.050781 93.75 93.746094 93.75 C 72.4375 93.75 52.359375 100.71875 35.679688 113.894531 C 19.5 126.671875 7.828125 144.664062 2.828125 164.546875 C 0.953125 172 0 179.722656 0 187.492188 C 0 195.261719 0.953125 202.976562 2.828125 210.4375 C 7.828125 230.320312 19.496094 248.308594 35.675781 261.089844 C 52.359375 274.273438 72.433594 281.234375 93.742188 281.234375 C 115.046875 281.234375 135.128906 274.269531 151.804688 261.089844 C 167.988281 248.308594 179.652344 230.316406 184.652344 210.4375 C 186.53125 202.980469 187.480469 195.261719 187.480469 187.492188 C 187.480469 179.722656 186.535156 172.003906 184.660156 164.546875 Z M 180.398438 209.359375 C 175.628906 228.308594 164.511719 245.453125 149.085938 257.636719 C 133.1875 270.195312 114.054688 276.835938 93.746094 276.835938 C 73.4375 276.835938 54.300781 270.199219 38.402344 257.636719 C 22.980469 245.449219 11.855469 228.308594 7.089844 209.355469 C 5.300781 202.25 4.394531 194.894531 4.394531 187.484375 C 4.394531 180.074219 5.300781 172.714844 7.089844 165.609375 C 11.855469 146.664062 22.980469 129.515625 38.402344 117.332031 C 54.300781 104.773438 73.4375 98.136719 93.746094 98.136719 C 114.054688 98.136719 133.1875 104.773438 149.085938 117.332031 C 164.511719 129.515625 175.632812 146.664062 180.398438 165.609375 C 182.1875 172.714844 183.09375 180.074219 183.09375 187.484375 C 183.09375 194.898438 182.1875 202.253906 180.398438 209.359375 Z M 177.5625 166.433594 L 177.023438 164.273438 L 176.988281 164.28125 C 172.109375 146.789062 161.628906 131.019531 147.300781 119.683594 C 131.917969 107.519531 113.398438 101.089844 93.746094 101.089844 C 74.09375 101.089844 55.570312 107.519531 40.191406 119.683594 C 25.859375 131.019531 15.378906 146.785156 10.5 164.28125 L 10.464844 164.273438 L 9.925781 166.433594 C 8.210938 173.289062 7.34375 180.375 7.34375 187.492188 C 7.34375 188.378906 7.355469 189.269531 7.382812 190.15625 C 7.441406 192.074219 7.566406 193.984375 7.753906 195.890625 C 8.167969 200.164062 8.890625 204.398438 9.929688 208.546875 L 10.46875 210.707031 L 10.503906 210.699219 C 15.382812 228.191406 25.863281 243.960938 40.195312 255.296875 C 55.574219 267.460938 74.09375 273.894531 93.75 273.894531 C 113.402344 273.894531 131.921875 267.460938 147.300781 255.296875 C 161.632812 243.960938 172.113281 228.191406 176.992188 210.699219 L 177.027344 210.707031 L 177.566406 208.546875 C 179.28125 201.691406 180.152344 194.605469 180.152344 187.488281 C 180.152344 186.597656 180.136719 185.710938 180.109375 184.820312 C 179.914062 178.609375 179.0625 172.433594 177.5625 166.433594 Z M 175.714844 189.890625 C 175.707031 190.152344 175.691406 190.414062 175.679688 190.679688 C 175.660156 191.214844 175.640625 191.75 175.605469 192.285156 C 175.585938 192.601562 175.566406 192.914062 175.542969 193.226562 C 175.507812 193.714844 175.476562 194.199219 175.429688 194.683594 C 175.398438 195.011719 175.371094 195.34375 175.335938 195.671875 C 175.289062 196.140625 175.238281 196.609375 175.1875 197.074219 C 175.148438 197.410156 175.105469 197.742188 175.0625 198.078125 C 175.003906 198.542969 174.9375 199.007812 174.871094 199.472656 C 174.824219 199.800781 174.773438 200.128906 174.726562 200.453125 C 174.648438 200.933594 174.566406 201.410156 174.480469 201.886719 C 174.425781 202.195312 174.371094 202.503906 174.316406 202.8125 C 174.214844 203.335938 174.109375 203.863281 173.996094 204.386719 C 173.945312 204.640625 173.894531 204.898438 173.839844 205.148438 C 173.828125 205.199219 173.8125 205.25 173.800781 205.300781 L 140.222656 196.40625 C 140.246094 196.289062 140.265625 196.164062 140.285156 196.042969 C 140.3125 195.898438 140.339844 195.746094 140.367188 195.601562 C 140.417969 195.308594 140.464844 195.011719 140.507812 194.714844 C 140.527344 194.589844 140.550781 194.464844 140.566406 194.339844 C 140.628906 193.917969 140.683594 193.496094 140.738281 193.078125 C 140.742188 193.03125 140.746094 192.992188 140.75 192.945312 C 140.796875 192.566406 140.835938 192.1875 140.867188 191.808594 C 140.878906 191.667969 140.890625 191.53125 140.902344 191.390625 C 140.925781 191.097656 140.945312 190.804688 140.964844 190.511719 C 140.976562 190.363281 140.984375 190.210938 140.992188 190.058594 C 141.007812 189.761719 141.023438 189.46875 141.027344 189.167969 C 141.03125 189.03125 141.039062 188.898438 141.042969 188.761719 C 141.054688 188.335938 141.0625 187.90625 141.0625 187.476562 C 141.0625 187.042969 141.054688 186.621094 141.042969 186.191406 C 141.039062 186.054688 141.03125 185.917969 141.027344 185.785156 C 141.019531 185.488281 141.007812 185.191406 140.992188 184.894531 C 140.984375 184.742188 140.972656 184.59375 140.964844 184.4375 C 140.945312 184.144531 140.925781 183.855469 140.902344 183.570312 C 140.890625 183.429688 140.878906 183.289062 140.867188 183.148438 C 140.835938 182.773438 140.796875 182.402344 140.75 182.027344 C 140.746094 181.980469 140.742188 181.925781 140.738281 181.878906 C 140.6875 181.457031 140.632812 181.042969 140.570312 180.621094 C 140.554688 180.488281 140.53125 180.363281 140.511719 180.230469 C 140.464844 179.9375 140.417969 179.644531 140.371094 179.359375 C 140.34375 179.207031 140.316406 179.058594 140.289062 178.90625 C 140.269531 178.789062 140.25 178.664062 140.226562 178.542969 L 173.804688 169.648438 C 173.816406 169.703125 173.832031 169.753906 173.84375 169.808594 C 173.894531 170.054688 173.945312 170.300781 173.996094 170.550781 C 174.109375 171.082031 174.21875 171.617188 174.320312 172.152344 C 174.375 172.449219 174.429688 172.75 174.480469 173.050781 C 174.566406 173.539062 174.652344 174.023438 174.726562 174.511719 C 174.777344 174.832031 174.824219 175.148438 174.871094 175.472656 C 174.941406 175.945312 175.007812 176.421875 175.070312 176.898438 C 175.109375 177.222656 175.152344 177.550781 175.191406 177.875 C 175.246094 178.351562 175.292969 178.828125 175.34375 179.304688 C 175.378906 179.628906 175.40625 179.953125 175.4375 180.277344 C 175.476562 180.765625 175.515625 181.257812 175.550781 181.75 C 175.570312 182.058594 175.59375 182.367188 175.613281 182.675781 C 175.644531 183.210938 175.664062 183.753906 175.6875 184.292969 C 175.699219 184.554688 175.714844 184.816406 175.722656 185.074219 C 175.746094 185.875 175.757812 186.675781 175.757812 187.476562 C 175.753906 188.289062 175.738281 189.09375 175.714844 189.890625 Z M 42.917969 123.128906 C 57.515625 111.582031 75.089844 105.484375 93.746094 105.484375 C 112.398438 105.484375 129.976562 111.582031 144.574219 123.128906 C 158.164062 133.878906 168.105469 148.828125 172.742188 165.40625 L 139.195312 174.292969 C 136.492188 164.984375 130.902344 156.605469 123.277344 150.507812 C 114.816406 143.738281 104.605469 140.160156 93.746094 140.160156 C 82.886719 140.160156 72.675781 143.738281 64.210938 150.507812 C 56.589844 156.605469 50.996094 164.984375 48.292969 174.292969 L 14.746094 165.410156 C 19.382812 148.828125 29.324219 133.878906 42.917969 123.128906 Z M 136.660156 188.761719 C 136.644531 189.28125 136.621094 189.792969 136.585938 190.308594 C 136.480469 191.902344 136.292969 193.484375 136.015625 195.042969 C 136 195.136719 135.976562 195.226562 135.964844 195.320312 C 135.902344 195.640625 135.847656 195.953125 135.78125 196.273438 C 135.691406 196.679688 135.601562 197.085938 135.503906 197.492188 L 135.503906 197.511719 C 133.300781 206.730469 127.988281 215.089844 120.535156 221.042969 C 112.859375 227.183594 103.597656 230.425781 93.75 230.425781 C 83.898438 230.425781 74.636719 227.183594 66.960938 221.042969 C 59.507812 215.085938 54.191406 206.722656 51.992188 197.492188 C 51.210938 194.253906 50.816406 190.886719 50.816406 187.492188 C 50.816406 187.066406 50.824219 186.644531 50.835938 186.21875 C 50.921875 183.253906 51.3125 180.324219 51.996094 177.488281 C 54.195312 168.261719 59.507812 159.898438 66.964844 153.941406 C 74.640625 147.804688 83.902344 144.558594 93.753906 144.558594 C 103.601562 144.558594 112.863281 147.804688 120.539062 153.941406 C 127.992188 159.898438 133.308594 168.261719 135.507812 177.492188 C 136.289062 180.730469 136.683594 184.09375 136.683594 187.496094 C 136.679688 187.914062 136.671875 188.339844 136.660156 188.761719 Z M 47.257812 196.417969 L 13.679688 205.3125 C 13.667969 205.265625 13.65625 205.214844 13.644531 205.164062 C 13.589844 204.90625 13.539062 204.644531 13.484375 204.390625 C 13.375 203.871094 13.265625 203.34375 13.167969 202.820312 C 13.113281 202.515625 13.058594 202.210938 13.007812 201.910156 C 12.921875 201.425781 12.839844 200.941406 12.761719 200.457031 C 12.707031 200.136719 12.664062 199.8125 12.613281 199.492188 C 12.546875 199.019531 12.480469 198.550781 12.417969 198.078125 C 12.378906 197.75 12.335938 197.421875 12.300781 197.09375 C 12.242188 196.621094 12.195312 196.144531 12.144531 195.667969 C 12.113281 195.34375 12.082031 195.019531 12.050781 194.695312 C 12.011719 194.203125 11.972656 193.710938 11.9375 193.21875 C 11.917969 192.914062 11.894531 192.605469 11.875 192.292969 C 11.84375 191.753906 11.824219 191.21875 11.800781 190.679688 C 11.789062 190.414062 11.773438 190.15625 11.765625 189.894531 C 11.746094 189.09375 11.730469 188.292969 11.730469 187.492188 C 11.730469 186.6875 11.746094 185.890625 11.765625 185.089844 C 11.773438 184.828125 11.789062 184.566406 11.800781 184.304688 C 11.824219 183.765625 11.84375 183.226562 11.875 182.691406 C 11.894531 182.378906 11.917969 182.070312 11.9375 181.757812 C 11.972656 181.269531 12.007812 180.78125 12.050781 180.296875 C 12.082031 179.96875 12.113281 179.640625 12.144531 179.3125 C 12.191406 178.839844 12.242188 178.367188 12.296875 177.898438 C 12.332031 177.570312 12.375 177.238281 12.414062 176.90625 C 12.476562 176.4375 12.542969 175.96875 12.609375 175.5 C 12.660156 175.171875 12.703125 174.851562 12.757812 174.523438 C 12.832031 174.039062 12.917969 173.558594 13 173.082031 C 13.054688 172.773438 13.105469 172.46875 13.164062 172.164062 C 13.265625 171.636719 13.371094 171.113281 13.484375 170.585938 C 13.535156 170.332031 13.585938 170.078125 13.640625 169.820312 C 13.652344 169.769531 13.667969 169.71875 13.679688 169.667969 L 47.253906 178.5625 C 47.230469 178.6875 47.210938 178.808594 47.1875 178.933594 C 47.160156 179.078125 47.132812 179.222656 47.109375 179.367188 C 47.054688 179.664062 47.007812 179.964844 46.960938 180.265625 C 46.945312 180.390625 46.921875 180.511719 46.90625 180.636719 C 46.847656 181.054688 46.789062 181.476562 46.738281 181.898438 C 46.734375 181.945312 46.730469 181.984375 46.722656 182.03125 C 46.675781 182.410156 46.640625 182.789062 46.605469 183.171875 C 46.59375 183.308594 46.582031 183.445312 46.574219 183.582031 C 46.550781 183.875 46.527344 184.167969 46.507812 184.460938 C 46.496094 184.609375 46.488281 184.761719 46.480469 184.914062 C 46.46875 185.210938 46.453125 185.507812 46.445312 185.808594 C 46.441406 185.941406 46.433594 186.078125 46.429688 186.210938 C 46.417969 186.640625 46.410156 187.066406 46.410156 187.496094 C 46.410156 187.921875 46.417969 188.347656 46.429688 188.777344 C 46.433594 188.910156 46.441406 189.046875 46.445312 189.183594 C 46.457031 189.476562 46.46875 189.773438 46.480469 190.070312 C 46.488281 190.21875 46.5 190.375 46.507812 190.523438 C 46.527344 190.816406 46.550781 191.109375 46.574219 191.398438 C 46.582031 191.535156 46.59375 191.675781 46.605469 191.816406 C 46.640625 192.191406 46.675781 192.5625 46.722656 192.933594 C 46.730469 192.988281 46.734375 193.035156 46.738281 193.089844 C 46.785156 193.507812 46.84375 193.925781 46.902344 194.34375 C 46.921875 194.476562 46.945312 194.605469 46.960938 194.734375 C 47.007812 195.027344 47.050781 195.316406 47.105469 195.609375 C 47.132812 195.757812 47.15625 195.910156 47.1875 196.058594 C 47.21875 196.175781 47.234375 196.300781 47.257812 196.417969 Z M 144.574219 251.855469 C 129.976562 263.402344 112.398438 269.503906 93.746094 269.503906 C 75.089844 269.503906 57.515625 263.402344 42.917969 251.855469 C 29.324219 241.105469 19.382812 226.15625 14.746094 209.578125 L 48.292969 200.691406 C 50.996094 209.996094 56.589844 218.378906 64.210938 224.476562 C 72.675781 231.242188 82.886719 234.820312 93.746094 234.820312 C 104.605469 234.820312 114.816406 231.242188 123.277344 224.476562 C 130.902344 218.378906 136.492188 209.996094 139.195312 200.695312 L 172.742188 209.578125 C 168.105469 226.15625 158.164062 241.105469 144.574219 251.855469 Z M 144.574219 251.855469 " fill-opacity="1" fill-rule="nonzero"/></g><g fill="#ffffff" fill-opacity="1"><g transform="translate(44.356403, 160.310346)"><g><path d="M 9.84375 -10.296875 L 6.5 -6.046875 L 5.4375 -6.890625 L 0.421875 -0.53125 L -13.375 -11.40625 L -5.015625 -22.015625 L -1.828125 -19.515625 L -6.84375 -13.140625 L 0.578125 -7.28125 L 2.25 -9.40625 L -2 -12.75 L 0.296875 -17.828125 Z M 9.84375 -10.296875 "/></g></g></g><g fill="#ffffff" fill-opacity="1"><g transform="translate(53.484327, 148.707991)"><g><path d="M 7.015625 -5.28125 L 2.953125 -10.6875 L 0.796875 -9.0625 L 4.859375 -3.65625 L 0.53125 -0.40625 L -10.03125 -14.453125 L -5.703125 -17.703125 L -1.640625 -12.296875 L 0.515625 -13.921875 L -3.546875 -19.328125 L 0.78125 -22.578125 L 11.34375 -8.53125 Z M 7.015625 -5.28125 "/></g></g></g><g fill="#ffffff" fill-opacity="1"><g transform="translate(65.270897, 139.819251)"><g><path d="M 6.5 -21.640625 L 13.140625 -5.359375 L 0.625 -0.25 L -6.015625 -16.53125 Z M 3.015625 -15.828125 L 0.515625 -14.8125 L 4.09375 -6.0625 L 6.59375 -7.078125 Z M 3.015625 -15.828125 "/></g></g></g><g fill="#ffffff" fill-opacity="1"><g transform="translate(78.93559, 134.23264)"><g><path d="M 12.328125 -15.234375 L 7.140625 -13.203125 L 6.96875 -14.53125 L 4.296875 -14.1875 L 4.640625 -11.5 L 12.671875 -12.546875 L 14.0625 -1.828125 L 0.671875 -0.09375 L 0.15625 -4.125 L 5.328125 -6.140625 L 5.515625 -4.8125 L 8.1875 -5.15625 L 7.828125 -7.828125 L -0.203125 -6.796875 L -1.59375 -17.53125 L 11.796875 -19.265625 Z M 12.328125 -15.234375 "/></g></g></g><g fill="#ffffff" fill-opacity="1"><g transform="translate(93.573511, 132.318237)"><g><path d="M 16.328125 -15.609375 L 15.796875 -11.578125 L 11.796875 -12.09375 L 10.0625 1.3125 L 4.515625 1.953125 L 6.421875 -12.796875 L 2.40625 -13.3125 L 2.9375 -17.34375 Z M 16.328125 -15.609375 "/></g></g></g><g fill="#ffffff" fill-opacity="1"><g transform="translate(108.215304, 134.202748)"><g><path d="M 18.25 -7.15625 L 12.71875 -7.953125 L 13.234375 -9.203125 L 10.734375 -10.21875 L 9.703125 -7.71875 L 17.21875 -4.65625 L 13.140625 5.359375 L 0.625 0.25 L 2.15625 -3.515625 L 7.671875 -2.703125 L 7.15625 -1.46875 L 9.65625 -0.453125 L 10.671875 -2.953125 L 3.171875 -6.015625 L 7.265625 -16.03125 L 19.78125 -10.921875 Z M 18.25 -7.15625 "/></g></g></g><g fill="#ffffff" fill-opacity="1"><g transform="translate(121.891386, 139.76143)"><g><path d="M 19.46875 -2.265625 L 12.984375 -7.140625 L 7.296875 0.40625 L 13.78125 5.28125 L 11.34375 8.53125 L 0.53125 0.40625 L 11.09375 -13.640625 L 21.90625 -5.515625 Z M 15.40625 3.125 L 10 -0.9375 L 12.4375 -4.171875 L 17.84375 -0.109375 Z M 15.40625 3.125 "/></g></g></g><g fill="#ffffff" fill-opacity="1"><g transform="translate(133.69607, 148.626168)"><g><path d="M 18.34375 3.609375 L 13.921875 0.203125 L 16.046875 -1.484375 L 14.375 -3.609375 L 6.953125 2.25 L 8.625 4.375 L 9.6875 3.546875 L 14.09375 6.953125 L 8.78125 11.140625 L 0.421875 0.53125 L 14.21875 -10.34375 L 22.578125 0.265625 Z M 18.34375 3.609375 "/></g></g></g><g clip-path="url(#889459efcc)"><path fill="#322f37" d="M 27.621094 198.09375 C 27.578125 198.09375 27.535156 198.085938 27.496094 198.074219 C 22.335938 196.226562 19 191.285156 19 185.476562 L 19 180.601562 C 19 180.398438 19.167969 180.226562 19.375 180.226562 C 21.824219 180.226562 25.695312 178.929688 27.34375 177.058594 C 27.484375 176.898438 27.761719 176.898438 27.902344 177.058594 C 29.550781 178.925781 33.421875 180.226562 35.871094 180.226562 C 36.074219 180.226562 36.246094 180.394531 36.246094 180.601562 L 36.246094 185.476562 C 36.246094 191.285156 32.910156 196.226562 27.75 198.074219 C 27.707031 198.085938 27.664062 198.09375 27.621094 198.09375 Z M 19.746094 180.964844 L 19.746094 185.476562 C 19.746094 190.917969 22.832031 195.550781 27.621094 197.324219 C 32.410156 195.550781 35.496094 190.917969 35.496094 185.476562 L 35.496094 180.964844 C 32.976562 180.855469 29.449219 179.640625 27.621094 177.847656 C 25.796875 179.640625 22.265625 180.855469 19.746094 180.964844 Z M 19.746094 180.964844 " fill-opacity="1" fill-rule="nonzero"/></g><path fill="#322f37" d="M 34.417969 181.703125 C 32.0625 181.375 29.460938 180.347656 27.789062 179.089844 L 27.621094 178.960938 L 27.449219 179.089844 C 25.78125 180.347656 23.179688 181.375 20.824219 181.703125 L 20.582031 181.734375 L 20.582031 185.46875 C 20.582031 190.351562 23.300781 194.632812 27.511719 196.378906 L 27.617188 196.421875 L 27.722656 196.378906 C 31.929688 194.632812 34.652344 190.351562 34.652344 185.46875 L 34.652344 181.734375 Z M 34.417969 181.703125 " fill-opacity="1" fill-rule="nonzero"/><g clip-path="url(#9683aa67c7)"><path fill="#322f37" d="M 159.722656 198.09375 C 159.679688 198.09375 159.636719 198.085938 159.601562 198.074219 C 154.4375 196.226562 151.105469 191.285156 151.105469 185.476562 L 151.105469 180.601562 C 151.105469 180.398438 151.269531 180.226562 151.476562 180.226562 C 153.925781 180.226562 157.796875 178.929688 159.445312 177.058594 C 159.585938 176.898438 159.863281 176.898438 160.003906 177.058594 C 161.652344 178.925781 165.523438 180.226562 167.972656 180.226562 C 168.179688 180.226562 168.347656 180.394531 168.347656 180.601562 L 168.347656 185.476562 C 168.347656 191.285156 165.011719 196.226562 159.851562 198.074219 C 159.808594 198.085938 159.765625 198.09375 159.722656 198.09375 Z M 151.847656 180.964844 L 151.847656 185.476562 C 151.847656 190.917969 154.9375 195.550781 159.722656 197.324219 C 164.515625 195.550781 167.597656 190.917969 167.597656 185.476562 L 167.597656 180.964844 C 165.082031 180.855469 161.550781 179.640625 159.722656 177.847656 C 157.902344 179.640625 154.371094 180.855469 151.847656 180.964844 Z M 151.847656 180.964844 " fill-opacity="1" fill-rule="nonzero"/></g><path fill="#322f37" d="M 166.519531 181.703125 C 164.164062 181.375 161.5625 180.347656 159.894531 179.089844 L 159.722656 178.960938 L 159.554688 179.089844 C 157.882812 180.347656 155.28125 181.375 152.925781 181.703125 L 152.683594 181.734375 L 152.683594 185.46875 C 152.683594 190.351562 155.40625 194.632812 159.613281 196.378906 L 159.71875 196.421875 L 159.824219 196.378906 C 164.035156 194.632812 166.753906 190.351562 166.753906 185.46875 L 166.753906 181.734375 Z M 166.519531 181.703125 " fill-opacity="1" fill-rule="nonzero"/><g clip-path="url(#c90aaeccef)"><path fill="#322f37" d="M 80.488281 172.855469 C 80.257812 172.742188 80.035156 172.625 79.824219 172.507812 C 80.449219 169.550781 81.214844 165.882812 81.867188 162.675781 C 81.941406 162.320312 82.015625 161.984375 82.097656 161.660156 C 82.636719 159.554688 83.378906 158.132812 84.183594 157.292969 C 85.179688 156.261719 86.265625 156.117188 87.179688 156.679688 C 87.5625 156.914062 87.914062 157.273438 88.210938 157.742188 C 88.425781 158.070312 88.6875 158.375 88.980469 158.652344 C 89.511719 159.15625 90.113281 159.546875 90.753906 159.824219 C 92.347656 160.511719 94.179688 160.503906 95.769531 159.789062 C 96.375 159.511719 96.949219 159.132812 97.457031 158.652344 C 97.75 158.375 98.011719 158.070312 98.226562 157.742188 C 98.5625 157.21875 98.960938 156.832031 99.394531 156.601562 C 100.214844 156.171875 101.15625 156.292969 102.042969 157.089844 C 102.894531 157.863281 103.691406 159.257812 104.269531 161.398438 C 104.378906 161.796875 104.480469 162.222656 104.570312 162.675781 C 105.242188 165.992188 106.039062 169.800781 106.679688 172.808594 C 106.648438 172.824219 106.617188 172.839844 106.589844 172.855469 C 103.132812 174.558594 98.5 175.5 93.539062 175.5 C 88.582031 175.5 83.945312 174.558594 80.488281 172.855469 Z M 80.488281 172.855469 " fill-opacity="1" fill-rule="nonzero"/></g><path fill="#322f37" d="M 116.34375 181.078125 C 116.34375 184.699219 105.992188 187.636719 93.21875 187.636719 C 80.445312 187.636719 70.09375 184.699219 70.09375 181.078125 C 70.09375 179.007812 73.484375 177.15625 78.777344 175.957031 C 78.824219 175.980469 78.871094 176.003906 78.921875 176.027344 C 82.855469 177.972656 88.046875 179.039062 93.539062 179.039062 C 99.003906 179.039062 104.171875 177.984375 108.097656 176.058594 C 113.140625 177.261719 116.34375 179.0625 116.34375 181.078125 Z M 116.34375 181.078125 " fill-opacity="1" fill-rule="nonzero"/><g clip-path="url(#9858d9d38b)"><path fill="#322f37" d="M 90.886719 207.347656 C 90.628906 207.730469 90.382812 208.113281 90.140625 208.5 C 89.605469 209.355469 89.132812 210.179688 88.714844 210.96875 L 71.429688 202.230469 L 77.355469 199.761719 L 64.664062 192.59375 L 71.292969 185.398438 C 72.578125 186.179688 74.28125 186.875 76.367188 187.46875 C 76.386719 187.472656 76.40625 187.476562 76.421875 187.480469 C 77.957031 195.671875 85.128906 202.800781 90.886719 207.347656 Z M 90.886719 207.347656 " fill-opacity="1" fill-rule="nonzero"/></g><g clip-path="url(#22dcd1706b)"><path fill="#322f37" d="M 110.070312 200.574219 L 116.769531 201.949219 C 116.769531 201.949219 98.507812 204.273438 87.507812 218.871094 C 87.507812 218.871094 90.992188 202.753906 109.246094 193.976562 C 109.796875 193.714844 110.140625 193.15625 110.140625 192.546875 L 110.140625 187.445312 C 112.414062 186.796875 114.230469 186.023438 115.542969 185.144531 C 115.785156 184.980469 116.007812 184.816406 116.207031 184.652344 L 122.832031 192.59375 Z M 110.070312 200.574219 " fill-opacity="1" fill-rule="nonzero"/></g><path fill="#322f37" d="M 91.632812 190.582031 C 91.425781 192.46875 88.519531 193.695312 85.144531 193.324219 C 81.769531 192.949219 79.199219 191.117188 79.410156 189.230469 C 79.445312 188.894531 79.570312 188.578125 79.773438 188.289062 C 83.230469 188.964844 87.230469 189.363281 91.433594 189.457031 C 91.605469 189.820312 91.675781 190.203125 91.632812 190.582031 Z M 91.632812 190.582031 " fill-opacity="1" fill-rule="nonzero"/><path fill="#322f37" d="M 102.347656 193.324219 C 98.972656 193.699219 96.066406 192.46875 95.859375 190.582031 C 95.816406 190.191406 95.890625 189.796875 96.074219 189.421875 C 100.261719 189.28125 104.210938 188.824219 107.582031 188.097656 C 107.863281 188.4375 108.039062 188.820312 108.085938 189.230469 C 108.292969 191.117188 105.722656 192.949219 102.347656 193.324219 Z M 102.347656 193.324219 " fill-opacity="1" fill-rule="nonzero"/><path stroke-linecap="butt" transform="matrix(0.510037, 0.409374, -0.409374, 0.510037, 44.707982, 223.904635)" fill="none" stroke-linejoin="miter" d="M 13.579203 14.592339 L 13.580572 23.000549 L 0.643638 22.998926 L 0.644639 6.187164 L 13.577834 6.184129 L 13.580855 13.296685 L 8.40872 14.59131 Z M 8.408409 12.653896 L 8.407054 10.066325 L 5.819483 10.06768 L 5.820838 12.65525 Z M 8.404373 16.532463 L 5.82146 16.530079 L 5.818157 19.121388 L 8.405728 19.120034 Z M 8.404373 16.532463 " stroke="#c1ff72" stroke-width="1.490535" stroke-opacity="1" stroke-miterlimit="4"/><path stroke-linecap="butt" transform="matrix(0.569106, 0.322248, -0.322248, 0.569106, 53.890098, 231.034907)" fill="none" stroke-linejoin="miter" d="M 13.578443 6.183648 L 13.57989 22.999229 L 0.647799 22.998131 L 0.646353 6.18255 L 5.821857 6.182851 L 5.823701 19.120139 L 8.404784 19.120634 L 8.41108 6.185601 Z M 13.578443 6.183648 " stroke="#c1ff72" stroke-width="1.490535" stroke-opacity="1" stroke-miterlimit="4"/><path stroke-linecap="butt" transform="matrix(0.613432, 0.226775, -0.226775, 0.613432, 64.09716, 236.599789)" fill="none" stroke-linejoin="miter" d="M 13.579482 24.294072 L 8.409154 24.29509 L 8.408899 23.002508 L 0.645734 23.000503 L 0.643888 6.183662 L 13.582983 6.182578 L 13.580215 10.067998 L 5.822652 10.063922 L 5.820901 19.119669 L 8.406065 19.11916 L 8.41065 13.946761 L 13.580723 12.653161 Z M 13.579482 24.294072 " stroke="#c1ff72" stroke-width="1.490535" stroke-opacity="1" stroke-miterlimit="4"/><path stroke-linecap="butt" transform="matrix(0.64855, 0.0843075, -0.0843075, 0.64855, 79.549115, 241.484281)" fill="none" stroke-linejoin="miter" d="M 8.407076 22.999468 L 8.409366 16.530417 L 5.820147 16.535732 L 5.82301 22.998089 L 0.649723 23.002026 L 0.64414 6.186403 L 5.817426 6.182467 L 5.821059 12.650747 L 8.405126 12.652125 L 8.407416 6.183075 L 13.581472 6.185061 L 13.581132 23.001454 Z M 8.407076 22.999468 " stroke="#c1ff72" stroke-width="1.490535" stroke-opacity="1" stroke-miterlimit="4"/><path stroke-linecap="butt" transform="matrix(0.653675, -0.0208293, 0.0208293, 0.653675, 91.100207, 242.797426)" fill="none" stroke-linejoin="miter" d="M 13.579217 6.186576 L 13.5812 23.002611 L 0.649506 23.002876 L 0.647523 6.186841 L 5.822664 6.184423 L 5.822739 19.122087 L 8.41031 19.120878 L 8.410235 6.183214 Z M 13.579217 6.186576 " stroke="#c1ff72" stroke-width="1.490535" stroke-opacity="1" stroke-miterlimit="4"/><path stroke-linecap="butt" transform="matrix(0.641867, -0.125427, 0.125427, 0.641867, 102.712344, 242.240434)" fill="none" stroke-linejoin="miter" d="M 0.646019 22.999253 L 0.645518 6.184202 L 13.583339 6.186775 L 13.583841 23.001826 L 8.408556 24.290947 L 8.406623 10.06815 L 5.820231 10.067864 L 5.818803 22.999824 Z M 0.646019 22.999253 " stroke="#c1ff72" stroke-width="1.490535" stroke-opacity="1" stroke-miterlimit="4"/><path stroke-linecap="butt" transform="matrix(0.613432, -0.226775, 0.226775, 0.613432, 114.084731, 239.827777)" fill="none" stroke-linejoin="miter" d="M 13.583313 6.18739 L 13.58255 10.065136 L 9.699202 10.062301 L 9.698118 23.001396 L 4.527536 24.292961 L 4.526803 10.066886 L 0.649057 10.066123 L 0.644218 6.186306 Z M 13.583313 6.18739 " stroke="#c1ff72" stroke-width="1.490535" stroke-opacity="1" stroke-miterlimit="4"/><path stroke-linecap="butt" transform="matrix(0.569106, -0.322248, 0.322248, 0.569106, 124.922749, 235.621919)" fill="none" stroke-linejoin="miter" d="M 13.580751 10.063348 L 5.824165 10.064145 L 5.821921 19.12314 L 13.581451 19.117146 L 13.578907 23.000636 L 0.646816 23.001735 L 0.648262 6.186153 L 13.580353 6.185055 Z M 13.583899 16.530865 L 7.116382 16.534013 L 7.110787 12.652777 L 13.583501 12.652572 Z M 13.583899 16.530865 " stroke="#c1ff72" stroke-width="1.490535" stroke-opacity="1" stroke-miterlimit="4"/><path stroke-linecap="butt" transform="matrix(0.510037, -0.409374, 0.409374, 0.510037, 134.945664, 229.731839)" fill="none" stroke-linejoin="miter" d="M 13.582778 23.000161 L 8.409288 24.293106 L 8.404956 16.531313 L 5.822043 16.533697 L 5.820066 22.996097 L 0.645844 23.001784 L 0.648582 6.185364 L 13.581777 6.188398 L 13.582495 13.296296 L 8.405267 14.593899 L 13.584147 14.59195 Z M 8.409317 12.651827 L 8.410671 10.064256 L 5.819362 10.067559 L 5.821746 12.650472 Z M 8.409317 12.651827 " stroke="#c1ff72" stroke-width="1.490535" stroke-opacity="1" stroke-miterlimit="4"/><g fill="#ffffff" fill-opacity="1"><g transform="translate(187.499978, 176.164258)"><g><path d="M 31.671875 3.015625 L 19.609375 3.015625 L 19.609375 0 L 1.515625 0 L 1.515625 -39.203125 L 31.671875 -39.203125 L 31.671875 -30.15625 L 13.578125 -30.15625 L 13.578125 -9.046875 L 19.609375 -9.046875 L 19.609375 -21.109375 L 31.671875 -24.125 Z M 31.671875 3.015625 "/></g></g></g><g fill="#ffffff" fill-opacity="1"><g transform="translate(224.997322, 176.164258)"><g><path d="M 19.609375 0 L 19.609375 -15.078125 L 13.578125 -15.078125 L 13.578125 0 L 1.515625 0 L 1.515625 -39.203125 L 13.578125 -39.203125 L 13.578125 -24.125 L 19.609375 -24.125 L 19.609375 -39.203125 L 31.671875 -39.203125 L 31.671875 0 Z M 19.609375 0 "/></g></g></g><g fill="#ffffff" fill-opacity="1"><g transform="translate(262.494666, 176.164258)"><g><path d="M 31.671875 -39.203125 L 31.671875 0 L 1.515625 0 L 1.515625 -39.203125 Z M 19.609375 -30.15625 L 13.578125 -30.15625 L 13.578125 -9.046875 L 19.609375 -9.046875 Z M 19.609375 -30.15625 "/></g></g></g><g fill="#ffffff" fill-opacity="1"><g transform="translate(299.992007, 176.164258)"><g><path d="M 31.671875 -30.15625 L 19.609375 -27.140625 L 19.609375 -30.15625 L 13.578125 -30.15625 L 13.578125 -24.125 L 31.671875 -24.125 L 31.671875 0 L 1.515625 0 L 1.515625 -9.046875 L 13.578125 -12.0625 L 13.578125 -9.046875 L 19.609375 -9.046875 L 19.609375 -15.078125 L 1.515625 -15.078125 L 1.515625 -39.203125 L 31.671875 -39.203125 Z M 31.671875 -30.15625 "/></g></g></g><g fill="#ffffff" fill-opacity="1"><g transform="translate(337.489353, 176.164258)"><g><path d="M 31.671875 -39.203125 L 31.671875 -30.15625 L 22.625 -30.15625 L 22.625 0 L 10.5625 3.015625 L 10.5625 -30.15625 L 1.515625 -30.15625 L 1.515625 -39.203125 Z M 31.671875 -39.203125 "/></g></g></g><g fill="#c1ff72" fill-opacity="1"><g transform="translate(187.499978, 239.510946)"><g><path d="M 31.671875 -30.15625 L 19.609375 -27.140625 L 19.609375 -30.15625 L 13.578125 -30.15625 L 13.578125 -24.125 L 31.671875 -24.125 L 31.671875 0 L 1.515625 0 L 1.515625 -9.046875 L 13.578125 -12.0625 L 13.578125 -9.046875 L 19.609375 -9.046875 L 19.609375 -15.078125 L 1.515625 -15.078125 L 1.515625 -39.203125 L 31.671875 -39.203125 Z M 31.671875 -30.15625 "/></g></g></g><g fill="#c1ff72" fill-opacity="1"><g transform="translate(224.997322, 239.510946)"><g><path d="M 31.671875 -30.15625 L 13.578125 -30.15625 L 13.578125 -9.046875 L 31.671875 -9.046875 L 31.671875 0 L 1.515625 0 L 1.515625 -39.203125 L 31.671875 -39.203125 Z M 31.671875 -15.078125 L 16.59375 -15.078125 L 16.59375 -24.125 L 31.671875 -24.125 Z M 31.671875 -15.078125 "/></g></g></g><g fill="#c1ff72" fill-opacity="1"><g transform="translate(262.494666, 239.510946)"><g><path d="M 31.671875 -27.140625 L 19.609375 -24.125 L 19.609375 -30.15625 L 13.578125 -30.15625 L 13.578125 -9.046875 L 19.609375 -9.046875 L 19.609375 -12.0625 L 31.671875 -15.078125 L 31.671875 0 L 1.515625 0 L 1.515625 -39.203125 L 31.671875 -39.203125 Z M 31.671875 -27.140625 "/></g></g></g></svg>